<svg width="50" height="58" viewBox="0 0 50 58" fill="none" xmlns="http://www.w3.org/2000/svg">
<g clip-path="url(#clip0_70_2)">
<path d="M12.5072 7.2333L0.0235719 14.4666L0.0141431 20.8835C0.00942874 24.4136 0.00314291 30.8919 0.00157146 35.2794L0 43.2568L12.4821 50.4634C19.3462 54.4262 24.9736 57.6731 24.9877 57.6794C25.0035 57.6857 29.5308 55.079 37.4965 50.4791L49.9802 43.2678L49.9912 32.3753C49.9975 26.3832 50.0022 19.8971 49.9991 17.9606L49.9959 14.4399L37.5893 7.2742C30.766 3.33189 25.1402 0.0833435 25.0867 0.0534515L24.9925 -3.43323e-05L12.5072 7.2333ZM29.2652 5.67117L30.5648 6.42627V8.02302L30.5664 9.61977L31.9367 10.4016L33.307 11.185L33.3149 9.61347C33.3196 8.74824 33.3259 8.03718 33.3306 8.03246C33.3353 8.02931 33.9655 8.38799 34.7292 8.83319L36.1199 9.64179L36.1247 11.2354L36.1278 12.829L37.484 13.6124L38.8386 14.3943L38.8496 14.1866C38.8559 14.0718 38.8716 13.3607 38.8857 12.6087C38.9014 11.8552 38.9156 11.237 38.9187 11.2338C38.9219 11.2307 39.5394 11.5846 40.2922 12.0204L41.6593 12.8133V14.4131C41.6593 15.2941 41.6562 16.0146 41.6515 16.0146C41.6468 16.0146 41.0276 15.6669 40.2765 15.2422C39.5237 14.8174 38.9046 14.4729 38.8999 14.4776C38.8951 14.4808 38.8873 15.1856 38.881 16.0429L38.87 17.6019L37.5264 16.8531C36.7878 16.4425 36.1702 16.1027 36.1561 16.098C36.1309 16.0901 36.1309 16.1924 36.1388 17.6759C36.1435 18.549 36.1514 19.2679 36.1577 19.2742C36.1797 19.2978 38.837 20.797 38.8433 20.7891C38.8684 20.7655 38.8763 20.3581 38.8763 19.0697C38.8779 18.2815 38.881 17.635 38.8841 17.635C38.8873 17.635 39.5033 17.9858 40.2529 18.4152C41.004 18.8447 41.6263 19.1987 41.6373 19.2034C41.6562 19.2097 41.6593 19.0177 41.6609 18.0424C41.6625 17.399 41.6672 16.6832 41.6735 16.4519L41.6829 16.0303L42.9684 16.7744L44.2522 17.517L44.3465 17.6334L44.4424 17.7498L44.4314 19.2695C44.4251 20.1048 44.4204 20.7907 44.4188 20.7923C44.4172 20.7938 43.8012 20.4493 43.0501 20.0261L41.6829 19.2584L41.6735 20.0639C41.6688 20.5059 41.6625 21.217 41.6609 21.6449C41.6593 22.2584 41.6546 22.4189 41.6405 22.4126C41.6295 22.4079 41.0087 22.0586 40.2607 21.6355L38.9014 20.8662L38.8889 22.4315C38.881 23.2936 38.8731 23.9999 38.8716 24.0015C38.8574 24.0156 36.7532 22.8106 36.4641 22.6218L36.1152 22.3969L36.1058 21.7975C36.1011 21.4687 36.0932 20.7514 36.0869 20.2071C36.0807 19.4771 36.0728 19.2112 36.0602 19.1987C36.0319 19.1719 33.3652 17.635 33.3463 17.635C33.3306 17.635 30.5837 19.2317 30.5601 19.2537C30.5538 19.26 30.5538 19.9664 30.5601 20.8253L30.5696 22.3859L30.8618 22.2333C31.0221 22.1499 31.6476 21.8006 32.251 21.4546C32.8545 21.11 33.3526 20.83 33.3589 20.8332C33.3888 20.8505 36.0257 22.4063 36.0319 22.411C36.0335 22.4126 36.0304 22.4346 36.0225 22.4598C36.0099 22.496 35.9439 22.54 35.6548 22.7084C35.4615 22.8216 34.8628 23.1709 34.3253 23.4839C33.7879 23.797 33.3448 24.0534 33.34 24.0534C33.3353 24.0534 32.7492 23.7152 32.0373 23.2999C30.8194 22.5919 30.7361 22.5447 30.6104 22.5149C30.4831 22.485 30.4768 22.485 30.4313 22.5117C30.4061 22.5274 29.8074 22.8672 29.1034 23.2668C28.3994 23.6664 27.8164 23.9983 27.8101 24.0046C27.8022 24.0125 28.4119 24.3885 29.1647 24.8415C29.919 25.293 30.5318 25.669 30.5303 25.6769C30.524 25.6942 27.7881 27.2469 27.7645 27.2469C27.7472 27.2469 25.0852 25.6958 25.0537 25.6674C25.038 25.6533 25.368 25.4504 26.4083 24.8321L27.7834 24.0141L27.7865 22.4173L27.7912 20.8206L28.8944 20.1835C30.1264 19.4708 30.5161 19.2301 30.4831 19.2002C30.4721 19.1908 29.8593 18.8337 29.1207 18.4074L27.7787 17.6318L27.7299 17.6554C27.7032 17.668 27.0778 18.0267 26.3423 18.4498L25.0019 19.2223L24.818 19.1153C23.9003 18.582 22.2707 17.6444 22.2518 17.6397C22.2377 17.6365 21.6091 17.9952 20.8548 18.4373C19.9481 18.969 19.4751 19.238 19.4578 19.2317C19.3886 19.205 16.7234 17.6098 16.7329 17.6019C16.7392 17.5956 17.3505 17.2385 18.0922 16.8091C19.2928 16.1137 19.4468 16.0288 19.4782 16.0429C19.4986 16.0524 20.1162 16.4 20.8517 16.8153C21.5871 17.2322 22.1921 17.572 22.1968 17.572C22.2015 17.572 22.2031 16.8594 22.2015 15.9879L22.1968 14.4037L21.0104 13.7068C20.3582 13.323 19.7469 12.9643 19.6542 12.9092L19.4845 12.8101L20.8517 12.0125L22.2188 11.2149L22.2723 11.2433C22.4168 11.3203 24.9862 12.8133 24.9862 12.8211C24.9862 12.8258 24.3749 13.1829 23.6269 13.6156C22.8804 14.0482 22.2691 14.4069 22.2675 14.4116C22.2675 14.4179 22.8836 14.7765 23.6363 15.2107L25.0035 16.0005L26.3156 15.2501C27.0369 14.8379 27.6262 14.4918 27.6262 14.4824C27.6262 14.4729 27.6121 14.4305 27.5964 14.3864L27.5665 14.3077L26.2968 13.5715C25.5975 13.1672 25.0223 12.8306 25.016 12.8243C25.005 12.8133 27.7535 11.2275 27.7975 11.2212C27.8117 11.2181 28.4339 11.5705 29.182 12.0031L30.5413 12.7881L30.5507 11.9354C30.5554 11.4666 30.5617 10.7603 30.5617 10.367L30.5633 9.65123L29.1662 8.83791L27.7676 8.02459L26.3816 8.8269C25.3586 9.41998 24.9877 9.62606 24.9705 9.61662C24.9579 9.60875 24.3372 9.2485 23.5907 8.81746C22.5064 8.19135 22.2393 8.02931 22.255 8.01516C22.266 8.00414 22.8867 7.63602 23.6331 7.19712C24.7709 6.5301 24.9972 6.40268 25.0239 6.41526C25.0427 6.42313 25.6682 6.78181 26.4146 7.21128C27.1611 7.64074 27.7755 7.99156 27.7787 7.99156C27.7802 7.99156 27.7834 7.27578 27.7834 6.4011V4.81223L27.8745 4.86414C27.9248 4.89246 28.5502 5.25585 29.2652 5.67117ZM22.2204 6.42942V8.03088L21.023 8.70734C20.3661 9.0786 19.7438 9.43099 19.6401 9.48919L19.4546 9.59459V7.99942V6.40582L20.8265 5.61768C21.5793 5.18506 22.2015 4.8311 22.2094 4.8311C22.2157 4.82953 22.2204 5.55003 22.2204 6.42942ZM16.6779 8.39585C16.6842 8.59093 16.6889 9.26581 16.6904 9.89349C16.692 10.5212 16.6967 11.0718 16.7014 11.1158L16.7124 11.1945L18.0718 10.4111C18.8198 9.98001 19.4358 9.62763 19.4436 9.62763C19.4499 9.62763 19.4531 10.3466 19.4515 11.2259L19.4468 12.8243L18.0796 13.6156L16.7124 14.4069L16.7014 14.2779C16.6967 14.2086 16.6904 13.7037 16.6889 13.1593C16.6857 12.6135 16.6794 11.9653 16.6747 11.7152L16.6653 11.2637L15.2683 12.0456L13.8713 12.8258L13.8823 13.0791C13.887 13.2191 13.8964 13.8909 13.9011 14.5752C13.9058 15.2579 13.9153 15.8573 13.9215 15.9061L13.931 15.9926L15.295 15.2155C16.0462 14.7876 16.6637 14.443 16.67 14.4493C16.6889 14.4666 16.6983 17.6098 16.681 17.6224C16.6182 17.6696 14.4888 18.8935 14.2327 19.0303L13.9105 19.2034L13.9011 19.1467C13.8964 19.1153 13.8917 18.7849 13.8917 18.4137C13.8917 18.0408 13.887 17.3597 13.8807 16.8987L13.8713 16.0618L13.8383 16.0823C13.7833 16.1184 11.1621 17.5862 11.1353 17.5972C11.1118 17.6066 11.1102 17.4698 11.1102 16.0398C11.1102 15.1777 11.1071 14.4729 11.1023 14.4729C11.0756 14.4729 9.96618 15.1022 9.27788 15.5065C8.83788 15.7661 8.44815 15.9942 8.41201 16.0146L8.34444 16.0524V17.6145C8.34444 18.4734 8.34915 19.1766 8.35701 19.1766C8.3633 19.1766 8.98559 18.8337 9.73989 18.4152L11.1102 17.6538V19.2254C11.1102 20.0891 11.1149 20.797 11.1196 20.797C11.1243 20.797 11.7388 20.4572 12.4868 20.0419C13.2332 19.6266 13.8555 19.282 13.8681 19.2773C13.8885 19.2695 13.8917 19.356 13.8933 20.0041C13.8964 21.1588 13.9153 22.3277 13.9325 22.3654C13.9467 22.3984 14.0064 22.3654 15.3044 21.6134L16.6606 20.8253L17.847 21.5049C19.0571 22.1987 19.4311 22.4331 19.3886 22.4724C19.3776 22.4834 18.8685 22.7776 18.2588 23.1284C17.319 23.6695 16.9136 23.9181 16.7392 24.0613C16.7376 24.0628 17.3379 24.4136 18.0749 24.84C18.8119 25.2663 19.4248 25.6234 19.4358 25.6328C19.4499 25.647 19.4546 25.9774 19.4515 27.2201L19.4468 28.7886L18.0953 28.0224C17.352 27.6024 16.7266 27.2516 16.7046 27.2437C16.67 27.2296 16.5223 27.3114 15.3217 28.0177C14.5831 28.4519 13.975 28.8106 13.9718 28.8137C13.9687 28.8169 14.0064 28.8578 14.0567 28.9034C14.1258 28.9663 14.4684 29.1708 15.4191 29.7167L16.6889 30.4482L16.6857 31.9742C16.6826 33.1336 16.6763 33.5112 16.6622 33.5426L16.6433 33.5867L16.5144 33.5395C16.4264 33.5064 15.9959 33.2626 15.1504 32.7671C14.4715 32.3675 13.9058 32.0308 13.8933 32.0198C13.8744 32.0025 13.8744 31.8011 13.8901 30.6024C13.8995 29.8347 13.9105 29.1284 13.9121 29.034L13.9153 28.8625L12.5575 28.0791C11.8111 27.648 11.1872 27.2862 11.1699 27.2752C11.1432 27.2563 11.2705 27.1777 12.5025 26.4524C13.2537 26.0104 13.8775 25.6486 13.8917 25.6454C13.9043 25.6438 14.5344 25.9962 15.2903 26.4289L16.6653 27.2154L16.6747 26.5814C16.681 26.2338 16.6857 25.5243 16.6873 25.0036L16.6889 24.0597L15.3029 23.2511C14.5407 22.8075 13.909 22.4441 13.8995 22.4441C13.8917 22.4441 13.2631 22.7996 12.5041 23.2322C11.7466 23.6664 11.1228 24.0219 11.1181 24.0219C11.1133 24.0219 11.1102 23.314 11.1102 22.4488C11.1102 21.5836 11.1071 20.8756 11.1039 20.8756C11.0835 20.8756 8.95102 22.0964 8.67916 22.2647L8.34444 22.4708V24.0738V25.6769L8.38058 25.6549C8.45915 25.6029 11.0961 24.0377 11.1023 24.0377C11.1071 24.0377 11.1086 24.7645 11.1071 25.6533L11.1023 27.2689L9.72261 28.0649L8.34287 28.8594L8.34758 30.4199C8.35072 31.2789 8.35858 31.9852 8.3633 31.9915C8.36958 31.9962 8.99502 31.6501 9.75403 31.2238L11.1338 30.4451L11.1966 30.4813C11.9352 30.8982 13.5821 31.8594 13.7094 31.9475C13.8571 32.0497 13.876 32.067 13.8508 32.0812C13.8335 32.0906 13.3857 32.3486 12.8545 32.6554C11.9996 33.1478 11.1652 33.648 11.1762 33.659C11.1809 33.6622 12.0782 34.186 13.2725 34.8829L13.8885 35.2401L13.898 36.0298C13.9043 36.464 13.9074 37.1813 13.9043 37.6249L13.8995 38.4304L12.4947 37.6501L11.0898 36.8698L11.1008 35.5075C11.1055 34.7587 11.1055 34.0303 11.1008 33.8919L11.0898 33.637L9.72889 32.83C8.98088 32.3848 8.36015 32.023 8.35072 32.023C8.3413 32.0245 7.719 32.3753 6.96941 32.8017C6.21826 33.2296 5.59753 33.582 5.58967 33.5851C5.58024 33.5882 5.5771 33.0235 5.58182 32.0072C5.58653 31.1373 5.5881 30.4246 5.58653 30.4246C5.58339 30.4246 4.96109 30.7896 4.20365 31.2348C3.44621 31.68 2.82234 32.045 2.81919 32.045C2.81605 32.045 2.81291 31.3198 2.81291 30.4357V28.8248L4.19579 28.024L5.5771 27.2233L5.57867 25.614C5.57867 24.7299 5.57553 24.0062 5.57239 24.0062C5.56924 24.0062 5.07581 24.2988 4.47708 24.6559C3.87679 25.013 3.29535 25.3544 3.1822 25.4126C3.07063 25.4724 2.9402 25.5416 2.8962 25.5668L2.81291 25.6124V24.0172V22.4205L4.19265 21.6182L5.57082 20.8159L5.57553 22.4047C5.5771 23.3266 5.58496 23.9905 5.59282 23.9873C5.60067 23.9842 6.22297 23.6318 6.9757 23.2039L8.34287 22.4252L8.34444 20.808C8.34444 19.9176 8.33972 19.1939 8.33344 19.1971C8.32558 19.2018 7.90757 19.4472 7.40156 19.743C6.89555 20.0387 6.2984 20.3895 6.07368 20.5217C5.64939 20.7702 5.60225 20.797 5.5881 20.797C5.58339 20.797 5.57867 20.0922 5.57867 19.2317C5.57867 18.3319 5.57239 17.6664 5.56453 17.6664C5.55667 17.6664 4.95009 18.0046 4.21779 18.4184C3.48392 18.8337 2.86791 19.1798 2.84905 19.1908L2.81291 19.2097V17.6145V16.0193L4.19265 15.2217L5.57082 14.4257L5.58024 15.9989C5.58653 16.8657 5.59282 17.5767 5.59596 17.5783C5.5991 17.5815 6.21983 17.2322 6.97256 16.8028L8.34444 16.0225V14.4257V12.829L9.69903 12.0424C10.4439 11.6098 11.0615 11.2543 11.0741 11.2511C11.0913 11.2464 11.0945 11.4147 11.0961 12.2186C11.0976 12.7535 11.1023 13.4756 11.1086 13.8248L11.1181 14.4588L12.4931 13.6439L13.8681 12.829L13.876 11.2354L13.8838 9.64022L15.2667 8.84106C16.0273 8.40057 16.6543 8.04033 16.659 8.04033C16.6637 8.03875 16.6732 8.19921 16.6779 8.39585ZM45.7671 15.2044L46.9284 15.8589L47.0667 16.0036L47.205 16.1483L47.1956 17.6664C47.1909 18.5018 47.1846 19.1861 47.183 19.1892C47.1767 19.1971 45.4827 18.2406 44.972 17.937L44.4251 17.6145V16.4488C44.4251 15.807 44.4298 15.0975 44.4361 14.8709L44.4455 14.4572L44.5257 14.5028C44.5697 14.528 45.1291 14.8442 45.7671 15.2044ZM26.0972 19.8704C26.8483 20.2951 27.2302 20.5201 27.4172 20.6491C27.5634 20.7498 27.6891 20.8395 27.7001 20.8505C27.7142 20.8631 27.3921 21.0565 26.3612 21.6496L25.005 22.4331L23.6944 21.6764C22.9747 21.2595 22.343 20.8945 22.2927 20.8646L22.2 20.8111L22.2094 22.4C22.2141 23.2747 22.2141 23.9905 22.2094 23.9905C22.2047 23.9905 21.5793 23.6381 20.8202 23.2086L19.4389 22.4283L19.4405 21.1997C19.4421 20.5233 19.4468 19.8169 19.4531 19.6297L19.4625 19.2868L19.8396 19.4976C20.0471 19.6124 20.6584 19.9538 21.199 20.2542C21.7395 20.5547 22.1858 20.8033 22.1905 20.8064C22.1953 20.8096 22.8286 20.4619 23.597 20.034C24.3654 19.6061 25.005 19.26 25.0176 19.2647C25.0302 19.2695 25.5158 19.5416 26.0972 19.8704ZM45.8347 21.6339L47.2066 22.4079V23.4572C47.2066 24.0329 47.2019 24.7487 47.1956 25.0492L47.1861 25.5935L46.9253 25.4614C46.7823 25.3906 46.1678 25.0445 45.5597 24.6921C44.9515 24.3413 44.4487 24.0534 44.4408 24.0534C44.4314 24.0534 44.4235 24.648 44.422 25.6407L44.4172 27.2264L43.0501 26.4509C42.2989 26.023 41.6782 25.6737 41.6719 25.6737C41.664 25.6737 41.6593 26.3848 41.6593 27.2548C41.6593 28.1247 41.6562 28.8358 41.6515 28.8358C41.6468 28.8358 41.0229 28.4739 40.2654 28.0319C39.508 27.5898 38.8794 27.2249 38.87 27.2217C38.8606 27.217 38.2477 27.5772 37.5091 28.0193C36.7705 28.4614 36.1514 28.831 36.1325 28.8405C36.1042 28.8531 35.9047 28.743 34.7339 28.0649C33.9843 27.6307 33.3652 27.2705 33.3589 27.2642C33.3526 27.2595 33.9686 26.8898 34.7261 26.443L36.1042 25.6313L36.1671 25.6659C36.2017 25.6847 36.8192 26.0387 37.539 26.4524C38.2587 26.8662 38.8496 27.2013 38.8527 27.1981C38.8559 27.195 38.8653 26.4933 38.8731 25.6391C38.881 24.7849 38.892 24.0817 38.8967 24.0754C38.903 24.0707 39.3383 24.3082 39.8632 24.604C41.3953 25.4692 41.6468 25.6108 41.653 25.6108C41.6562 25.6108 41.6609 25.1389 41.6609 24.5599C41.6625 23.9826 41.6688 23.2684 41.6735 22.9742L41.6829 22.4378L42.3508 22.8263C42.7185 23.0403 43.3329 23.399 43.7179 23.6239L44.4172 24.0314L44.4267 23.4635C44.4314 23.152 44.4377 22.4393 44.4392 21.8777C44.4392 21.3177 44.4455 20.8599 44.4518 20.8599C44.4565 20.8599 45.0788 21.2091 45.8347 21.6339ZM23.5986 24.8117C24.345 25.2474 24.9547 25.6061 24.9547 25.6108C24.9532 25.6203 22.255 27.2374 22.2283 27.2437C22.2047 27.25 19.5096 25.6785 19.5096 25.658C19.5096 25.6454 22.2141 24.0219 22.2345 24.0219C22.2393 24.0219 22.8521 24.3775 23.5986 24.8117ZM33.3306 24.6543C33.3306 24.969 33.3259 25.6863 33.3196 26.2495L33.3102 27.2721L32.3437 27.8227C31.8126 28.1247 31.2076 28.4802 30.9986 28.614C30.7896 28.7461 30.6183 28.8578 30.6151 28.8594C30.6136 28.8609 31.2264 29.218 31.9792 29.6522L33.3448 30.4419L33.8759 30.1368C35.2478 29.3486 36.0382 28.8955 36.0587 28.8877C36.0775 28.8814 36.0807 29.1126 36.0807 30.4766V32.0733L34.7213 32.8646C33.6119 33.5096 33.3668 33.659 33.3888 33.6716C33.4045 33.6795 34.0205 34.0366 34.7591 34.4629C35.4976 34.8908 36.1137 35.2369 36.1262 35.2338C36.1404 35.2306 36.6684 34.9286 37.2985 34.562C38.254 34.0083 38.4756 33.873 38.6248 33.755C38.7789 33.6323 38.7993 33.6103 38.7773 33.593C38.7631 33.5835 38.1644 33.2359 37.4478 32.8221C36.7312 32.4068 36.1451 32.0639 36.1482 32.0576C36.1498 32.0497 36.6857 31.7288 37.3378 31.3418L38.5243 30.6402L38.7773 30.582L39.0319 30.5253L40.3409 31.2757L41.6515 32.0277L41.664 30.4451C41.6703 29.5736 41.6782 28.8594 41.6813 28.8562C41.6845 28.8531 42.1811 29.1362 42.7845 29.4855C43.4775 29.8866 43.9772 30.1855 44.1391 30.2972C44.2789 30.3948 44.3937 30.4797 44.3937 30.4844C44.3937 30.4907 44.4031 30.5945 44.4141 30.7157C44.4282 30.8777 44.4314 31.293 44.4251 32.2841L44.4172 33.6323L43.2151 32.9448L42.0129 32.2574L41.7803 32.1897L41.5478 32.1221L41.411 32.1992C41.3356 32.2401 40.7903 32.5531 40.1979 32.8929C39.1937 33.4703 39.1136 33.519 39.0083 33.6229L38.8936 33.7345V35.2652V36.7959L38.7631 36.8997C38.6704 36.9752 38.2886 37.2002 37.3771 37.7178C36.6857 38.111 36.1152 38.432 36.1105 38.432C36.0932 38.432 36.0807 37.8389 36.0807 36.9768C36.0807 36.5001 36.0759 35.9259 36.0697 35.6978L36.0602 35.2857L35.9879 35.3281C35.9487 35.3517 35.3751 35.6805 34.7166 36.0581L33.516 36.7456L33.4218 36.8761L33.3259 37.0051L33.3338 38.4902C33.3385 39.3066 33.3448 39.9768 33.3495 39.9815C33.3793 40.0114 33.6826 39.8494 34.8235 39.1902C35.5196 38.7891 36.0964 38.4587 36.1058 38.4587C36.1168 38.4587 36.7375 38.8142 37.4871 39.25C38.2367 39.6842 38.859 40.0413 38.8684 40.0429C38.8779 40.0429 39.5064 39.6921 40.2654 39.2594C41.0245 38.8284 41.6483 38.4776 41.6499 38.4807C41.653 38.4839 41.6578 39.2012 41.6609 40.0759L41.6672 41.6648L40.2969 42.4592C39.5426 42.8966 38.9266 43.2568 38.9266 43.2615C38.9266 43.2663 39.5379 43.6265 40.2843 44.0638C41.0308 44.5012 41.6373 44.863 41.631 44.8677C41.6248 44.8724 41.0355 45.2185 40.3189 45.6354L39.0193 46.3921H38.8936C38.8213 46.3921 38.7443 46.3827 38.7144 46.3701C38.6861 46.3591 38.089 46.0145 37.3881 45.6071L36.1121 44.8646L35.0231 45.4923C34.0818 46.0366 33.3573 46.4393 33.3243 46.4393C33.3196 46.4393 33.3149 45.7424 33.3149 44.8897C33.3149 44.0371 33.3102 43.3402 33.3039 43.3402C33.296 43.3402 33.2285 43.3638 33.153 43.3921C33.0587 43.4283 32.6187 43.6737 31.789 44.1519L30.5648 44.8583V46.4519V48.047L30.6324 48.0077C30.6686 47.9873 31.2799 47.6365 31.9902 47.2274L33.2835 46.4865L33.4359 46.5463C33.5475 46.5887 33.9325 46.8074 34.8078 47.3187C35.4772 47.7104 36.0351 48.0408 36.0461 48.0518C36.0634 48.0675 35.8607 48.1918 34.9696 48.7156C34.3662 49.0712 33.8523 49.3716 33.8256 49.3858C33.8005 49.3984 33.6575 49.4566 33.5098 49.5132L33.241 49.6186L32.2054 49.0224C31.635 48.6952 31.0253 48.3522 30.8493 48.2594L30.5287 48.0895L30.3386 48.1996C29.9724 48.412 27.8698 49.6312 27.8494 49.6438C27.8242 49.6595 28.7294 50.2086 29.7383 50.789C30.3621 51.1493 30.4784 51.2217 30.491 51.2578C30.4988 51.283 30.502 51.305 30.5004 51.3066C30.4768 51.3286 27.8022 52.8609 27.7896 52.8625C27.7802 52.8625 27.1516 52.5069 26.3942 52.0712C25.4875 51.5504 25.0207 51.2751 25.0317 51.2641C25.0396 51.2563 25.6603 50.8929 26.4115 50.4587L27.7755 49.6674L27.7802 48.0738L27.7834 46.4786L29.116 45.6873C29.8498 45.2531 30.4611 44.8882 30.4768 44.8772C30.5004 44.8598 30.3401 44.7623 29.149 44.0796C28.4025 43.6517 27.7834 43.2993 27.7739 43.2961C27.7598 43.293 25.2863 44.6931 25.06 44.8331L25.016 44.8598L26.3329 45.6338C27.0574 46.0586 27.6781 46.4236 27.7111 46.4456L27.7724 46.4818L27.7346 46.5069C27.7142 46.5195 27.0935 46.8782 26.3565 47.3029L25.016 48.0754L23.6253 47.2699C22.86 46.8279 22.2393 46.4613 22.2471 46.455C22.2534 46.4487 22.871 46.0916 23.619 45.6622C24.367 45.2311 24.9846 44.874 24.9909 44.8661C25.0082 44.8504 22.2518 43.2741 22.2251 43.2836C22.2141 43.2883 21.5855 43.647 20.8297 44.0796C19.5678 44.8048 19.4531 44.8661 19.4201 44.8488C19.3996 44.8378 18.7836 44.4839 18.0498 44.0607C17.3159 43.6375 16.7124 43.2961 16.7077 43.2993C16.703 43.304 16.6952 44.0088 16.6904 44.8646C16.6857 45.7204 16.6763 46.4251 16.6716 46.4314C16.6653 46.4361 16.0352 46.0853 15.2683 45.6496L13.876 44.8598V43.2977V41.7356L13.7785 41.6333C13.6874 41.5389 13.5884 41.4792 12.4318 40.8074C11.7451 40.4094 11.1778 40.0791 11.1699 40.0712C11.1511 40.0523 13.887 38.443 13.9215 38.4524C13.9373 38.4556 14.5596 38.8142 15.306 39.2484C16.0509 39.6826 16.6622 40.0366 16.6653 40.0334C16.6669 40.0303 16.6732 39.3161 16.6779 38.4461L16.6857 36.8635L15.3029 36.0612C14.5423 35.6208 13.92 35.2542 13.92 35.2463C13.92 35.2401 14.536 34.8767 15.2887 34.4425L16.6559 33.6512L17.5877 34.1782C18.6045 34.7555 19.4326 35.2511 19.4122 35.2715C19.4059 35.2778 18.9581 35.5389 18.4175 35.852C17.4872 36.3916 16.736 36.8399 16.736 36.8588C16.736 36.8635 16.8822 36.9516 17.0613 37.0555C17.2405 37.1593 17.8502 37.5148 18.4159 37.8436L19.4468 38.4446L19.4515 40.0492L19.4546 41.6522L20.8234 42.4356C21.5745 42.8651 22.1937 43.2159 22.1968 43.2128C22.211 43.197 22.211 40.068 22.1968 40.0539C22.189 40.046 21.5761 39.6873 20.8375 39.2579C20.0989 38.8284 19.4892 38.4713 19.4829 38.465C19.4735 38.4571 22.1591 36.8541 22.222 36.8305C22.233 36.8258 23.1334 37.3481 24.6939 38.2652L25.005 38.4493L26.3911 37.6548L27.7755 36.8604L27.7802 35.2636C27.7818 34.3843 27.7802 33.6653 27.7755 33.6653C27.7708 33.6653 27.1454 34.0224 26.3848 34.4598L25.0035 35.2542L23.7636 34.54C22.9511 34.0728 22.4813 33.7943 22.3996 33.7283C22.332 33.6748 22.2738 33.6244 22.2707 33.6181C22.2691 33.6118 22.7877 33.3098 23.4257 32.9448L24.5854 32.2841L24.8903 32.218L25.1952 32.1535L26.4728 32.8945C27.1768 33.3035 27.7614 33.6339 27.7724 33.6307C27.7849 33.6276 28.4041 33.2752 29.1474 32.8473C30.1971 32.2448 30.4973 32.0654 30.4816 32.0513C30.4171 31.9899 29.8231 31.6297 28.8912 31.0901C28.3035 30.7487 27.8211 30.4671 27.8179 30.464C27.8038 30.4514 28.7262 29.8898 29.589 29.3848L30.568 28.8122L30.5586 27.2453L30.5491 25.6769L31.9273 24.8824C32.6863 24.4451 33.3118 24.0864 33.3196 24.0864C33.3259 24.0849 33.3306 24.3413 33.3306 24.6543ZM23.619 28.0508L25.0035 28.8389L26.3895 28.0508L27.7755 27.2642L27.7849 28.0854C27.7912 28.5369 27.7959 29.2495 27.7975 29.6695L27.8022 30.4325L26.4131 31.2458C25.6493 31.6926 25.0176 32.0591 25.0066 32.0607C24.9956 32.0607 24.5116 31.7823 23.9302 31.4409C23.3487 31.1011 22.7311 30.7456 22.5567 30.6496L22.2408 30.4766L22.0083 30.593C21.881 30.6575 21.2697 31.0051 20.6505 31.3654C20.0314 31.7241 19.5065 32.0261 19.4845 32.034C19.4468 32.0497 19.3195 31.9789 18.0749 31.2568C17.3222 30.8211 16.7062 30.4608 16.7046 30.4561C16.7046 30.4514 17.3269 30.0817 18.0875 29.6349L19.4688 28.8216L20.5185 29.4399C21.4362 29.9794 22.1513 30.3775 22.2031 30.3775C22.2157 30.3775 22.2204 29.9087 22.2204 28.82C22.2204 27.9627 22.2235 27.2626 22.2283 27.2626C22.2314 27.2626 22.8584 27.6166 23.619 28.0508ZM44.697 27.4089C44.829 27.4718 45.4418 27.8164 46.061 28.1735L47.1861 28.8216L47.1971 30.4105C47.2034 31.2852 47.2066 32.0025 47.2034 32.0057C47.194 32.0151 45.61 31.1294 45.0301 30.7896L44.4644 30.4593L44.4534 30.2422C44.4487 30.121 44.4392 29.41 44.433 28.658C44.4235 27.5914 44.4251 27.2941 44.4392 27.2941C44.4502 27.2941 44.5665 27.346 44.697 27.4089ZM19.7265 32.2196C19.8664 32.2904 20.4855 32.6381 21.1 32.9952L22.2204 33.6417V35.2102C22.2204 36.1289 22.2141 36.7802 22.2063 36.7802C22.1984 36.7802 22.1293 36.7581 22.0538 36.7298C21.9533 36.6936 21.562 36.4765 20.6882 35.9763L19.4625 35.2731L19.4578 33.6826C19.4562 32.808 19.4578 32.0922 19.4625 32.0922C19.4672 32.0922 19.5851 32.1488 19.7265 32.2196ZM5.57867 35.2023V36.788L5.53467 36.8132C5.5111 36.8274 4.89509 37.2002 4.16436 37.6422L2.83648 38.4477L2.82705 37.5542C2.82234 37.0633 2.81605 36.3397 2.81448 35.9464L2.81291 35.2306L4.19265 34.4252C4.95009 33.9831 5.57239 33.6197 5.57553 33.6197C5.5771 33.6181 5.57867 34.3308 5.57867 35.2023ZM45.8158 34.4535L47.1877 35.2243L47.1987 36.5851C47.2097 37.8326 47.205 38.1991 47.1767 38.3785L47.1673 38.4446L45.8174 37.6596C45.0741 37.2285 44.4628 36.8698 44.4565 36.8635C44.4408 36.8478 44.4188 33.6811 44.433 33.6811C44.4392 33.6811 45.0615 34.0287 45.8158 34.4535ZM9.71475 36.0581C10.4659 36.5001 11.0756 36.8683 11.0678 36.8761C11.0615 36.8824 10.8321 37.0193 10.5602 37.1782C10.2883 37.3371 9.68018 37.6926 9.21031 37.9679C8.49373 38.3863 8.34915 38.465 8.32087 38.454C8.23129 38.4178 5.59596 36.788 5.60853 36.7754C5.62582 36.7581 8.31615 35.2574 8.33344 35.2558C8.3413 35.2542 8.96202 35.616 9.71475 36.0581ZM42.0491 35.4682C42.1936 35.5515 42.6541 35.819 43.0721 36.0597C43.7777 36.4671 44.3921 36.8384 44.3937 36.8588C44.3937 36.8635 43.8562 37.1813 43.1994 37.5636L42.0066 38.2589L41.7552 38.3171L41.5053 38.3738L40.2277 37.6297C39.5237 37.2206 38.9391 36.8793 38.9281 36.8698C38.914 36.8588 39.2534 36.6527 40.1303 36.1367L41.3529 35.4178L41.5572 35.369C41.6703 35.3423 41.7678 35.3203 41.774 35.3187C41.7819 35.3187 41.9045 35.3848 42.0491 35.4682ZM9.71318 39.2516C10.4596 39.6763 11.0803 40.0334 11.0913 40.0429C11.1055 40.057 11.1102 40.3921 11.1071 41.6538L11.1023 43.2458L9.76032 42.475L8.41987 41.7025L8.30201 41.7293C8.19515 41.7529 8.08829 41.8111 7.16742 42.3444C6.60955 42.67 6.02182 43.0114 5.86154 43.1042L5.56924 43.2725L4.19893 42.4687C3.44463 42.0266 2.82862 41.6616 2.82862 41.6569C2.82862 41.6491 5.50639 40.0759 5.54882 40.0602C5.56453 40.0539 6.02654 40.3119 6.83741 40.7807C7.97986 41.4398 8.23758 41.5783 8.32401 41.5783C8.3413 41.5783 8.34444 41.2935 8.34444 40.0287C8.34444 39.1761 8.34758 38.4792 8.35072 38.4792C8.35387 38.4792 8.96673 38.8268 9.71318 39.2516ZM44.4801 40.1247C44.5241 40.131 44.5744 40.142 44.5948 40.1483C44.6514 40.1703 47.1909 41.627 47.1909 41.6396C47.1909 41.6443 47.1641 41.6632 47.1311 41.6821C47.0997 41.6994 46.5576 42.0187 45.9258 42.3916L44.7787 43.0696L44.5414 43.1325L44.3025 43.1939L43.0076 42.4372C42.2958 42.0219 41.7112 41.6727 41.7096 41.6648C41.7018 41.6318 44.334 40.0948 44.378 40.1058C44.3905 40.1105 44.4377 40.1184 44.4801 40.1247ZM12.5072 44.0623C13.2505 44.498 13.8603 44.8583 13.8603 44.8646C13.8603 44.8724 11.2249 46.4047 11.1416 46.4456C11.1196 46.455 10.8163 46.2867 9.76975 45.6763C9.02959 45.2468 8.41358 44.8866 8.39944 44.8756C8.37587 44.8598 8.57073 44.7419 9.75246 44.0591C10.513 43.6202 11.1385 43.2647 11.1432 43.2663C11.1479 43.2678 11.7624 43.6265 12.5072 44.0623ZM20.8454 45.6653L22.2125 46.4487L22.2173 48.0408C22.2188 48.917 22.2141 49.6328 22.2078 49.6328C22.189 49.6328 19.4829 48.0927 19.4609 48.0706C19.4421 48.0502 19.4499 44.8819 19.4688 44.8819C19.4735 44.8819 20.0942 45.2358 20.8454 45.6653ZM18.0403 47.2558C18.7868 47.6884 19.4012 48.0486 19.4044 48.0565C19.4059 48.0628 18.7899 48.4246 18.034 48.8588L16.6606 49.6469L15.2997 48.8572C14.5517 48.423 13.9388 48.0644 13.9404 48.0596C13.9404 48.0486 16.6449 46.4708 16.6653 46.4708C16.6732 46.4708 17.2923 46.8247 18.0403 47.2558ZM23.6159 50.4603C24.3654 50.8976 24.983 51.261 24.9893 51.2657C24.9956 51.272 24.378 51.6354 23.619 52.0743L22.2377 52.8719L20.8375 52.0743C20.0691 51.6354 19.4405 51.272 19.4436 51.2641C19.4468 51.2515 22.2188 49.6642 22.2393 49.6642C22.2455 49.6642 22.8647 50.0229 23.6159 50.4603Z" fill="#C6AC8F"/>
<path d="M33.3306 12.84L33.3321 14.4179L34.176 14.9024C34.6396 15.1683 35.2587 15.5238 35.551 15.6921L36.0806 15.9957V14.3974L36.079 12.7975L34.8125 12.0896C34.1147 11.6995 33.4971 11.3549 33.4374 11.3219L33.3306 11.2621V12.84Z" fill="#C6AC8F"/>
<path d="M29.1521 13.6266L27.7787 14.432L27.7881 14.8175C27.7944 15.0298 27.7991 15.7409 27.7991 16.3953C27.7991 17.0718 27.8054 17.5878 27.8133 17.5878C27.8211 17.5878 28.4198 17.2464 29.1443 16.8295C29.8703 16.4126 30.4769 16.0697 30.4957 16.0665C30.5916 16.0461 30.7157 16.1106 31.8739 16.7823C32.8655 17.3565 33.2552 17.572 33.3055 17.572C33.3102 17.572 33.3134 16.8594 33.3118 15.9879L33.3071 14.4037L31.9179 13.6124C31.1542 13.1767 30.5287 12.8211 30.5272 12.8227C30.5256 12.8227 29.908 13.1845 29.1521 13.6266Z" fill="#C6AC8F"/>
<path d="M6.94892 26.4713L5.57861 27.2532L5.58018 28.4503C5.58176 29.1079 5.58804 29.8174 5.59276 30.0251L5.60219 30.4058L6.9725 29.616L8.34438 28.8279V27.2579C8.34438 26.3958 8.33809 25.6895 8.33181 25.6895C8.32552 25.6895 7.70322 26.0419 6.94892 26.4713Z" fill="#C6AC8F"/>
<path d="M31.9336 31.2725L30.5602 32.0575L30.5633 33.637C30.5649 34.5038 30.5696 35.2164 30.5712 35.218C30.5775 35.2243 33.2097 33.7125 33.2301 33.6905C33.2395 33.681 33.2631 33.6134 33.2819 33.5394C33.3149 33.4057 33.3149 33.3994 33.3118 31.9474L33.3071 30.4875L31.9336 31.2725Z" fill="#C6AC8F"/>
<path d="M29.3391 35.959C28.3066 36.5505 27.8493 36.8289 27.8462 36.8604C27.8462 36.8667 28.4119 37.2002 29.1034 37.6045L30.359 38.3376L30.5035 38.3674L30.6481 38.3973L31.9634 37.6312C32.6879 37.2112 33.2756 36.8619 33.2709 36.8557C33.2253 36.8085 31.2405 35.6553 30.9215 35.4917C30.7015 35.3785 30.5192 35.2857 30.5161 35.2872C30.513 35.2872 29.9834 35.5893 29.3391 35.959Z" fill="#C6AC8F"/>
<path d="M23.696 39.2295C22.9763 39.6495 22.3587 40.0082 22.3273 40.0255C22.2943 40.0444 22.2676 40.0633 22.2676 40.068C22.2676 40.0727 22.2974 40.0916 22.3352 40.112C22.3713 40.1309 22.9669 40.4754 23.6583 40.875L24.9139 41.6034L25.0506 41.5782C25.1606 41.5578 25.2156 41.5357 25.3413 41.4634C25.4278 41.4146 25.9856 41.089 26.5812 40.7413L27.6655 40.1073V40.0538V40.0019L26.3534 39.2437C25.6321 38.8268 25.0333 38.4823 25.0239 38.476C25.0161 38.4697 24.4173 38.8095 23.696 39.2295Z" fill="#C6AC8F"/>
<path d="M29.1663 39.2736L27.7913 40.0649L27.7881 40.6061C27.785 40.9034 27.7897 41.6176 27.796 42.195L27.807 43.2443L29.1773 42.4545L30.5476 41.6648L30.5492 40.0712C30.5492 39.1966 30.5476 38.4792 30.546 38.4808C30.5429 38.4808 29.9221 38.8379 29.1663 39.2736Z" fill="#C6AC8F"/>
<path d="M37.5972 40.7917C36.9325 41.1802 36.3652 41.5122 36.3384 41.5295C36.3102 41.5468 36.2473 41.627 36.1923 41.7135L36.0964 41.8677V43.3197C36.0964 44.1283 36.1027 44.7717 36.1106 44.7717C36.1169 44.7717 36.3117 44.6805 36.5396 44.5688C36.8696 44.4083 37.154 44.2494 37.9068 43.8042L38.8575 43.2426L38.8669 42.5473C38.8826 41.5389 38.8795 41.1692 38.8543 40.6579C38.8418 40.4062 38.8308 40.175 38.8308 40.142C38.8308 40.1105 38.8261 40.0837 38.8198 40.0853C38.8119 40.0869 38.2635 40.4047 37.5972 40.7917Z" fill="#C6AC8F"/>
<path d="M16.5553 40.186L16.3667 40.2379L15.1724 40.9396C14.5155 41.325 13.9718 41.6428 13.9624 41.6459C13.9545 41.6506 13.9498 41.6569 13.9545 41.6616C13.9828 41.6931 16.6983 43.2773 16.714 43.271C16.7407 43.2615 19.4122 41.6727 19.4279 41.6569C19.4436 41.6428 16.8083 40.131 16.7706 40.1325C16.7564 40.1341 16.659 40.1577 16.5553 40.186Z" fill="#C6AC8F"/>
<path d="M33.2332 40.1938L33.0195 40.2395L31.8425 40.9254C31.1966 41.3045 30.6513 41.6238 30.6309 41.6364C30.5963 41.6584 30.6167 41.671 31.1966 42.014C31.7199 42.3223 33.3024 43.2269 33.3338 43.2347C33.3479 43.2379 36.065 41.6679 36.0634 41.6569C36.0634 41.6459 33.4925 40.1545 33.4689 40.1514C33.4579 40.1514 33.3526 40.1702 33.2332 40.1938Z" fill="#C6AC8F"/>
</g>
<defs>
<clipPath id="clip0_70_2">
<rect width="50" height="57.6795" fill="white"/>
</clipPath>
</defs>
</svg>
